<?xml version="1.0" standalone="no"?>
<!DOCTYPE svg PUBLIC "-//W3C//DTD SVG 20010904//EN"
 "http://www.w3.org/TR/2001/REC-SVG-20010904/DTD/svg10.dtd">
<svg version="1.0" xmlns="http://www.w3.org/2000/svg"
 width="460.000000pt" height="460.000000pt" viewBox="0 0 460.000000 460.000000"
 preserveAspectRatio="xMidYMid meet">
<metadata>
Created by potrace 1.11, written by Peter Selinger 2001-2013
</metadata>
<g transform="translate(0.000000,460.000000) scale(0.100000,-0.100000)"
fill="#000000" stroke="none">
<path d="M937 4451 l-27 -31 0 -670 c0 -440 3 -670 10 -670 6 0 10 -7 10 -15
0 -8 7 -15 15 -15 8 0 15 -4 15 -9 0 -8 52 -31 71 -31 9 0 0 40 -14 57 -13 17
-10 694 3 707 16 16 11 33 -10 39 -19 5 -20 14 -20 245 0 150 4 243 10 247 6
3 10 15 10 26 0 10 5 19 10 19 6 0 10 7 10 15 0 8 5 15 11 15 14 0 39 25 39
39 0 6 -4 11 -9 11 -5 0 -11 10 -13 23 -3 19 -10 22 -48 25 -40 3 -49 -1 -73
-27z"/>
<path d="M1668 4460 c-10 -11 -18 -29 -18 -39 0 -10 -7 -24 -15 -31 -22 -18
-21 -500 1 -660 17 -122 14 -313 -6 -350 -5 -10 -10 -44 -10 -74 0 -31 -4 -56
-10 -56 -5 0 -10 -11 -10 -25 0 -22 -4 -25 -34 -25 -19 0 -38 -4 -41 -10 -3
-5 -37 -10 -76 -10 -39 0 -69 4 -69 10 0 6 -7 10 -15 10 -8 0 -15 -7 -15 -15
0 -8 5 -15 11 -15 11 0 39 -25 39 -35 0 -10 27 -35 38 -35 6 0 12 -6 14 -12 6
-18 190 -18 195 0 3 6 13 12 24 12 12 0 21 9 25 25 3 14 10 25 15 25 5 0 9 22
9 50 0 27 7 75 15 107 11 42 15 114 15 280 0 192 -2 223 -15 223 -12 0 -15 14
-15 65 0 37 -4 65 -10 65 -6 0 -10 58 -10 155 0 97 4 155 10 155 6 0 10 18 10
40 0 22 4 40 9 40 5 0 12 9 16 19 3 11 16 23 28 27 43 14 64 54 28 54 -13 0
-21 8 -23 23 -3 18 -10 22 -48 25 -35 2 -49 -2 -62 -18z m2 -140 c0 -5 -4 -10
-10 -10 -5 0 -10 5 -10 10 0 6 5 10 10 10 6 0 10 -4 10 -10z"/>
<path d="M2340 4465 c0 -8 -7 -15 -15 -15 -11 0 -15 -11 -15 -40 0 -22 -4 -40
-10 -40 -7 0 -10 -153 -11 -437 0 -241 -5 -476 -10 -523 -5 -47 -12 -107 -15
-134 -7 -56 -17 -69 -59 -81 -53 -14 -277 -18 -285 -4 -4 6 -13 8 -19 5 -7 -5
9 -27 46 -61 67 -64 89 -69 250 -63 72 2 108 8 111 16 2 7 10 12 18 12 8 0 14
7 14 15 0 8 4 15 9 15 5 0 11 28 14 63 4 34 11 87 16 117 5 30 10 149 10 263
1 136 4 206 11 202 6 -3 10 3 10 13 0 11 -8 22 -18 24 -25 7 -32 52 -32 208 0
123 25 310 42 310 4 0 8 5 8 11 0 11 25 39 35 39 10 0 35 28 35 39 0 6 -9 11
-20 11 -15 0 -20 7 -20 25 0 23 -3 25 -50 25 -38 0 -50 -4 -50 -15z"/>
<path d="M2780 4470 c0 -5 -6 -10 -14 -10 -8 0 -31 -15 -50 -34 l-36 -33 0
-657 c0 -431 3 -656 10 -656 6 0 10 -7 10 -15 0 -8 7 -15 15 -15 8 0 15 -7 15
-15 0 -8 6 -15 14 -15 8 0 16 -4 18 -10 2 -5 13 -7 25 -4 21 6 21 7 7 43 -12
31 -14 95 -11 376 1 187 6 350 11 362 6 17 3 22 -13 28 -20 6 -21 12 -21 226
0 139 4 219 10 219 6 0 10 14 10 31 0 30 19 59 39 59 6 0 11 7 11 15 0 9 9 15
25 15 14 0 25 4 25 10 0 6 134 11 368 12 l367 3 3 23 c2 15 -2 22 -12 22 -9 0
-16 -4 -16 -10 0 -5 -11 -10 -25 -10 -14 0 -25 5 -25 10 0 6 7 10 15 10 8 0
15 7 15 15 0 13 -51 15 -395 15 -257 0 -395 -4 -395 -10z m70 -30 c0 -5 -6
-10 -14 -10 -8 0 -18 5 -21 10 -3 6 3 10 14 10 12 0 21 -4 21 -10z"/>
<path d="M3470 4123 c-1 -57 -6 -97 -15 -113 -8 -14 -14 -35 -15 -47 0 -18 -6
-23 -24 -23 -14 0 -31 -7 -40 -15 -12 -12 -50 -15 -210 -15 -178 0 -236 -8
-173 -24 12 -3 33 -16 47 -28 24 -22 30 -23 234 -23 159 0 210 3 214 13 2 6
10 12 18 12 8 0 14 7 14 15 0 8 5 15 10 15 6 0 10 47 10 120 0 73 -4 120 -10
120 -5 0 -10 7 -10 15 0 8 -4 15 -10 15 -5 0 -12 11 -16 25 -13 51 -24 22 -24
-62z"/>
<path d="M3150 3800 c0 -12 177 -13 235 -1 29 6 3 9 -97 10 -86 1 -138 -3
-138 -9z"/>
<path d="M0 1170 l0 -1170 2300 0 2300 0 0 1170 0 1170 -2300 0 -2300 0 0
-1170z m2510 429 c0 -22 -22 -49 -39 -49 -6 0 -11 -5 -11 -11 0 -6 -6 -17 -14
-25 -8 -8 -19 -14 -25 -14 -6 0 -11 -5 -11 -11 0 -14 -25 -39 -39 -39 -6 0
-11 -5 -11 -11 0 -11 -25 -39 -35 -39 -8 0 -35 -27 -35 -35 0 -10 -28 -35 -39
-35 -6 0 -11 -7 -11 -15 0 -8 -4 -15 -10 -15 -5 0 -10 -8 -10 -18 0 -10 -9
-25 -20 -35 -18 -15 -48 -17 -274 -17 -176 0 -255 -3 -258 -11 -2 -6 -25 -13
-51 -16 -26 -3 -47 -10 -47 -14 0 -5 -9 -9 -20 -9 -19 0 -29 -6 -65 -37 -7 -7
-18 -13 -24 -13 -6 0 -11 -5 -11 -11 0 -6 -16 -26 -35 -45 -19 -18 -35 -40
-35 -49 0 -8 -4 -15 -9 -15 -5 0 -11 -22 -15 -50 -4 -27 -11 -50 -16 -50 -6 0
-10 -16 -10 -35 0 -19 4 -35 9 -35 5 0 12 -21 16 -47 7 -53 26 -103 37 -103 5
0 8 -11 8 -25 0 -16 6 -25 15 -25 9 0 15 -9 15 -25 0 -14 5 -25 10 -25 10 0
22 -8 55 -37 7 -7 18 -13 24 -13 6 0 11 -3 11 -7 0 -14 61 -43 91 -43 16 0 29
-4 29 -10 0 -6 30 -10 70 -10 40 0 70 4 70 10 0 6 7 10 15 10 8 0 15 6 15 14
0 8 5 16 12 18 9 3 13 59 16 199 2 107 8 198 13 204 5 5 9 19 9 31 0 29 22 34
153 34 64 0 107 4 107 10 0 6 -42 10 -105 10 -63 0 -105 4 -105 10 0 6 43 10
110 10 91 0 110 3 110 15 0 8 7 15 15 15 13 0 15 -58 15 -460 l0 -460 -360 0
c-313 0 -360 2 -360 15 0 11 -11 15 -39 15 -22 0 -43 5 -46 10 -3 6 -15 10
-25 10 -10 0 -25 6 -32 13 -7 7 -28 20 -45 28 -18 7 -33 20 -33 26 0 7 -5 13
-10 13 -10 0 -22 8 -55 37 -7 7 -18 13 -24 13 -6 0 -11 7 -11 15 0 8 -4 15
-10 15 -5 0 -10 7 -10 15 0 9 -11 26 -25 39 -15 14 -25 35 -25 52 0 16 -7 38
-15 48 -8 11 -15 32 -15 48 0 15 -4 28 -10 28 -5 0 -10 22 -10 48 0 26 -5 53
-11 59 -18 18 3 281 25 296 8 6 8 10 -1 14 -14 5 -18 83 -5 83 4 0 16 23 27
50 11 28 23 50 27 50 4 0 8 7 8 15 0 8 11 25 25 39 14 14 25 28 25 31 0 8 127
135 135 135 6 0 20 11 50 38 7 6 18 12 24 12 6 0 11 4 11 9 0 5 11 12 25 15
14 4 25 11 25 16 0 6 11 10 25 10 14 0 25 4 25 10 0 5 16 12 35 16 19 3 35 10
35 15 0 5 17 9 38 9 21 0 44 6 50 12 10 10 116 14 432 17 235 2 420 7 420 12
0 5 7 9 15 9 8 0 15 5 15 10 0 6 5 10 10 10 6 0 10 -9 10 -21z m120 -9 c0 -5
-4 -10 -10 -10 -5 0 -10 5 -10 10 0 6 5 10 10 10 6 0 10 -4 10 -10z m1080 0
c0 -5 -4 -10 -10 -10 -5 0 -10 -7 -10 -15 0 -8 -5 -15 -11 -15 -14 0 -39 -25
-39 -39 0 -6 -5 -11 -11 -11 -14 0 -39 -25 -39 -39 0 -6 -6 -11 -13 -11 -8 0
-20 -11 -27 -25 -7 -14 -17 -25 -22 -25 -12 0 -58 -47 -58 -60 0 -5 -5 -10
-11 -10 -14 0 -39 -25 -39 -39 0 -6 -5 -11 -11 -11 -14 0 -39 -25 -39 -39 0
-6 -5 -11 -11 -11 -14 0 -39 -25 -39 -39 0 -6 -5 -11 -11 -11 -12 0 -129 -116
-129 -128 0 -5 9 -18 20 -30 11 -12 20 -25 20 -29 0 -12 78 -83 90 -83 6 0 10
-4 10 -10 0 -5 7 -10 15 -10 12 0 15 -18 16 -92 1 -51 4 -120 6 -153 2 -33 6
-157 9 -275 5 -212 5 -215 -16 -228 -19 -12 -24 -10 -41 10 -13 14 -18 30 -14
45 4 18 1 23 -15 23 -13 0 -99 79 -245 225 -124 124 -231 225 -239 225 -15 0
-206 -185 -206 -200 0 -5 -4 -10 -10 -10 -12 0 -260 -248 -260 -261 0 -5 -5
-9 -11 -9 -14 0 -39 -26 -39 -40 0 -6 -8 -10 -17 -8 -23 4 -29 51 -9 71 9 9
16 18 16 22 0 4 7 13 15 21 19 19 19 45 0 91 -8 19 -15 57 -15 83 0 26 7 67
15 90 8 23 15 53 15 66 0 13 5 24 10 24 6 0 10 7 10 15 0 8 5 15 11 15 14 0
39 25 39 39 0 6 5 11 11 11 14 0 39 25 39 39 0 6 4 11 10 11 5 0 39 29 75 64
61 61 65 67 65 110 0 34 -4 46 -15 46 -8 0 -15 5 -15 11 0 16 -26 39 -44 39
-20 0 -246 226 -246 245 0 9 63 79 141 156 110 111 146 142 167 142 14 0 28
-6 30 -12 6 -17 26 -13 42 9 8 11 18 20 23 20 12 0 207 -197 207 -210 0 -5 11
-10 25 -10 14 0 25 -4 25 -10 0 -5 20 -10 45 -10 39 0 49 5 85 42 22 23 40 46
40 50 0 4 5 8 11 8 14 0 39 25 39 39 0 6 5 11 11 11 11 0 39 25 39 35 0 12 29
35 43 35 9 0 17 5 19 12 3 9 58 13 196 16 106 3 192 8 192 13 0 5 20 9 45 9
25 0 45 -4 45 -10z m-1470 -1167 c0 -34 -4 -65 -10 -68 -6 -4 -10 24 -10 77 0
57 3 78 10 68 5 -8 10 -43 10 -77z"/>
</g>
</svg>
